# xmcd
#
# Track frame offsets: 
#        150
#        8970
#        20477
#        31222
#        43000
#        48782
#        54595
#        70380
#        76595
#        88750
#        107122
#        113492
#        122035
#        130530
#        138692
#        151952
#        162532
#        173222
#        181290
#        190975
#        201627
#
# Disc length: 2804 seconds
#
# Revision: 9
# Processed by: cddbd v1.5.2PL0 Copyright (c) Steve Scherf et al.
# Submitted via: ExactAudioCopy v1.0b1
#
DISCID=1e0af215
DTITLE=Hank Williams - The Complete Hank Williams [CD 08)
DYEAR=1998
DGENRE=Country
TTITLE0=California Zephyr
TTITLE1=Your Cheatin' Heart
TTITLE2=You Better Keep It On Your Mind
TTITLE3=How Can You Refuse Him Now
TTITLE4=Low Down Blues
TTITLE5=Ten Little Numbers
TTITLE6=Thy Burdens Are Greater Than Mine
TTITLE7=Last Night I Dreamed Of Heaven
TTITLE8=I Ain't Got Nothin' But Time
TTITLE9=Message To My Mother
TTITLE10=Fool About You
TTITLE11=I'm Going Home
TTITLE12=Jambalaya (On The Bayou)
TTITLE13=Ready To Go Home
TTITLE14=Kaw-Liga
TTITLE15=I Could Never Be Ashamed Of You
TTITLE16=Angel Of Death
TTITLE17=All The Love I Ever Had
TTITLE18=We're Getting Closer To The Grave Each Day
TTITLE19=The Log Train
TTITLE20=How To Write Folk And Western Music To Sell
EXTD=
EXTT0=
EXTT1=
EXTT2=
EXTT3=
EXTT4=
EXTT5=
EXTT6=
EXTT7=
EXTT8=
EXTT9=
EXTT10=
EXTT11=
EXTT12=
EXTT13=
EXTT14=
EXTT15=
EXTT16=
EXTT17=
EXTT18=
EXTT19=
EXTT20=
PLAYORDER=
